<?xml version="1.0" standalone="no"?>
<!DOCTYPE svg PUBLIC "-//W3C//DTD SVG 20010904//EN"
 "http://www.w3.org/TR/2001/REC-SVG-20010904/DTD/svg10.dtd">
<svg version="1.0" xmlns="http://www.w3.org/2000/svg"
 width="128.000000pt" height="128.000000pt" viewBox="0 0 128.000000 128.000000"
 preserveAspectRatio="xMidYMid meet">
<metadata>
Created by potrace 1.11, written by Peter Selinger 2001-2013
</metadata>
<g transform="translate(0.000000,128.000000) scale(0.100000,-0.100000)"
fill="#000000" stroke="none">
<path d="M583 990 c-21 -27 -45 -49 -54 -50 -8 0 -26 11 -39 25 -13 14 -31 25
-40 25 -9 0 -27 -11 -40 -25 -13 -14 -31 -25 -40 -25 -9 0 -27 11 -40 25 -13
14 -31 25 -40 25 -9 0 -27 -11 -40 -25 -13 -14 -31 -25 -40 -25 -9 0 -27 11
-40 25 -13 14 -33 25 -45 25 -12 0 -32 -11 -45 -25 -14 -15 -35 -25 -52 -25
l-28 0 0 -350 0 -350 640 0 640 0 0 350 0 350 -33 0 c-23 0 -41 8 -57 25 -13
14 -31 25 -40 25 -9 0 -27 -11 -40 -25 -13 -14 -31 -25 -40 -25 -9 0 -27 11
-40 25 -13 14 -31 25 -40 25 -9 0 -27 -11 -40 -25 -13 -14 -31 -25 -40 -25 -9
0 -27 11 -40 25 -30 32 -57 32 -93 -2 l-29 -28 -46 53 c-26 28 -55 52 -64 52
-9 0 -34 -22 -55 -50z m104 -78 l40 -47 -43 -52 -42 -53 -45 52 -45 52 41 48
c22 26 43 48 47 48 4 0 25 -21 47 -48z m-482 -22 c31 0 55 6 67 17 17 15 19
15 36 0 24 -22 99 -22 123 -1 17 15 20 15 42 -3 l24 -18 -110 -133 c-60 -72
-115 -132 -123 -132 -9 0 -14 12 -14 35 0 31 -3 35 -25 35 -22 0 -25 -4 -25
-35 0 -31 -3 -35 -25 -35 -22 0 -25 4 -25 35 0 31 -3 35 -25 35 -22 0 -25 -4
-25 -35 0 -31 -3 -35 -25 -35 l-25 0 0 135 0 135 24 0 c13 0 29 7 36 15 12 14
15 14 30 0 10 -9 36 -15 65 -15z m700 0 c31 0 55 6 67 17 17 15 19 15 36 0 11
-11 36 -17 62 -17 26 0 51 6 62 17 17 15 19 15 36 0 10 -10 28 -17 40 -17 21
0 22 -3 22 -135 l0 -135 -25 0 c-22 0 -25 4 -25 35 0 31 -3 35 -25 35 -22 0
-25 -4 -25 -35 0 -31 -3 -35 -25 -35 -22 0 -25 4 -25 35 0 31 -3 35 -25 35
-22 0 -25 -4 -25 -35 0 -24 -5 -35 -14 -35 -8 0 -63 60 -123 133 -108 130
-109 133 -89 149 18 14 23 14 37 2 9 -8 37 -14 64 -14z m-345 -125 l42 -54
-37 -46 -37 -45 -40 50 c-21 27 -39 53 -39 57 0 6 62 91 67 93 1 0 21 -25 44
-55z m259 -15 l19 -25 -43 -52 -42 -51 -37 44 -38 45 43 55 43 56 18 -24 c10
-13 27 -34 37 -48z m-365 -129 l34 -45 -45 -58 c-67 -85 -64 -84 -110 -25
l-41 53 56 67 c30 37 59 64 63 60 4 -4 23 -28 43 -52z m506 -42 l29 -35 -42
-52 c-47 -58 -43 -58 -110 26 l-45 58 41 53 41 53 29 -33 c16 -19 41 -50 57
-70z m-281 42 c17 -21 31 -43 31 -47 -1 -5 -16 -27 -35 -49 l-34 -40 -35 40
c-19 22 -35 44 -36 48 0 11 61 87 71 87 4 0 21 -18 38 -39z m-535 -166 c-48
-58 -88 -105 -90 -105 -2 0 -4 47 -4 105 l0 105 90 0 90 0 -86 -105z m1086 -2
c0 -92 -2 -105 -14 -93 -8 8 -48 57 -90 108 l-76 92 90 0 90 0 0 -107z m-630
-13 c0 -9 -102 -130 -110 -130 -9 0 -70 74 -70 85 0 3 24 35 53 70 l52 63 37
-41 c21 -23 38 -44 38 -47z m213 18 c26 -31 47 -59 47 -63 0 -11 -61 -85 -70
-85 -5 0 -32 29 -60 65 l-52 65 38 45 c20 25 40 42 44 38 3 -4 27 -33 53 -65z
m-484 -78 c-5 -8 -24 -32 -42 -53 l-33 -38 -83 3 -83 3 82 102 83 102 43 -52
c31 -38 40 -55 33 -67z m785 13 c42 -51 76 -95 76 -98 0 -3 -37 -5 -83 -5
l-83 0 -42 51 -42 51 33 40 c17 22 36 46 42 54 5 7 12 10 16 6 4 -4 41 -49 83
-99z m-430 -53 l36 -45 -40 -3 c-22 -2 -58 -2 -80 0 l-40 3 37 47 c21 26 41
46 45 45 3 -1 23 -22 42 -47z m-280 -25 l16 -25 -47 0 -46 0 23 25 c13 14 27
25 31 25 4 0 14 -11 23 -25z m526 0 l23 -25 -46 0 -47 0 16 25 c9 14 19 25 23
25 4 0 18 -11 31 -25z"/>
<path d="M100 765 c0 -20 5 -25 25 -25 20 0 25 5 25 25 0 20 -5 25 -25 25 -20
0 -25 -5 -25 -25z"/>
<path d="M200 765 c0 -20 5 -25 25 -25 20 0 25 5 25 25 0 20 -5 25 -25 25 -20
0 -25 -5 -25 -25z"/>
<path d="M1030 765 c0 -20 5 -25 25 -25 20 0 25 5 25 25 0 20 -5 25 -25 25
-20 0 -25 -5 -25 -25z"/>
<path d="M1130 765 c0 -20 5 -25 25 -25 20 0 25 5 25 25 0 20 -5 25 -25 25
-20 0 -25 -5 -25 -25z"/>
</g>
</svg>
